<svg xmlns:dc="http://purl.org/dc/elements/1.1/" xmlns:cc="http://creativecommons.org/ns#" xmlns:rdf="http://www.w3.org/1999/02/22-rdf-syntax-ns#" xmlns:svg="http://www.w3.org/2000/svg" xmlns="http://www.w3.org/2000/svg" xmlns:xlink="http://www.w3.org/1999/xlink" id="svg107849" viewBox="0 0 1024 768" height="768px" width="1024px" version="1.1">
  <metadata id="metadata107855">
    <rdf:rdf>
      <cc:work rdf:about="">
        <dc:format>image/svg+xml</dc:format>
        <dc:type rdf:resource="http://purl.org/dc/dcmitype/StillImage"></dc:type>
      </cc:work>
    </rdf:rdf>
  </metadata>
  <defs id="defs107853"></defs>
  <linearGradient spreadMethod="pad" y2="30%" x2="-10%" y1="120%" x1="30%" id="3d_gradient2-logo-33f53c41-87d6-4a79-9ec3-6b66856a5dbd">
    <stop id="stop107830" stop-opacity="1" stop-color="#ffffff" offset="0%"></stop>
    <stop id="stop107832" stop-opacity="1" stop-color="#000000" offset="100%"></stop>
  </linearGradient>
  <linearGradient gradientTransform="rotate(-30)" spreadMethod="pad" y2="30%" x2="-10%" y1="120%" x1="30%" id="3d_gradient3-logo-33f53c41-87d6-4a79-9ec3-6b66856a5dbd">
    <stop id="stop107835" stop-opacity="1" stop-color="#ffffff" offset="0%"></stop>
    <stop id="stop107837" stop-opacity="1" stop-color="#cccccc" offset="50%"></stop>
    <stop id="stop107839" stop-opacity="1" stop-color="#000000" offset="100%"></stop>
  </linearGradient>
  <g id="logo-group">
    <image xlink:href="" id="container" x="272" y="144" width="480" height="480" transform="translate(0 0)" style="display: none;"></image>
    <g id="logo-center" transform="translate(0 0)">
      <image xlink:href="" id="icon_container" x="0" y="0" style="display: none;"></image>
      <g id="slogan" style="font-style:oblique;font-weight:normal;font-size:32px;line-height:1;font-family:'Libre Baskerville';font-variant-ligatures:none;text-align:center;text-anchor:middle" transform="translate(0 0)"></g>
      <g id="title" style="font-style:normal;font-weight:normal;font-size:72px;line-height:1;font-family:'Brandmark Script 4';font-variant-ligatures:normal;text-align:center;text-anchor:middle" transform="translate(0 0)">
        <path id="path107858" style="font-style:normal;font-weight:normal;font-size:72px;line-height:1;font-family:'Brandmark Script 4';font-variant-ligatures:normal;text-align:center;text-anchor:middle" d="m 156.707,-90.288 c -21.888,0 -69.84,7.704 -69.84,30.672 0,12.672 15.624,21.024 24.984,25.992 1.368,0.792 3.168,0.216 3.96,-1.152 0.72,-1.44 0.216,-3.24 -1.224,-3.96 -8.208,-4.392 -21.888,-11.736 -21.888,-20.88 0,-16.56 41.04,-24.84 64.008,-24.84 26.568,0 66.024,9 66.024,33.912 0,25.272 -46.944,46.584 -76.392,46.584 -12.456,0 -19.224,-4.68 -19.224,-9.144 0,-1.872 1.224,-3.744 3.312,-5.4 0.288,0.72 0.792,1.296 1.584,1.584 0.36,0.216 0.72,0.288 1.08,0.288 1.152,0 2.232,-0.72 2.736,-1.8 0.504,-1.224 1.008,-2.448 1.584,-3.6 3.744,-1.224 9,-2.16 16.272,-2.16 11.952,0 19.008,6.624 19.08,6.696 1.152,1.152 2.952,1.08 4.104,0 1.152,-1.152 1.152,-3.024 0,-4.176 -0.36,-0.36 -8.712,-8.352 -23.184,-8.352 -4.608,0 -8.928,0.36 -12.744,1.08 8.856,-16.128 20.376,-28.224 28.872,-36.36 1.152,-1.08 1.224,-2.952 0.072,-4.104 -1.08,-1.152 -2.952,-1.224 -4.104,-0.072 -9.648,9.216 -23.112,23.4 -32.616,42.768 -1.08,0.432 -2.16,0.936 -3.096,1.512 -5.544,3.024 -8.784,7.416 -8.784,12.096 0,10.296 13.032,14.976 25.056,14.976 16.056,0 36.144,-5.616 52.488,-14.688 19.224,-10.656 29.736,-24.048 29.736,-37.728 0,-31.464 -47.016,-39.744 -71.856,-39.744 z" stroke-width="0" stroke-linejoin="miter" stroke-miterlimit="2" fill="#4598ba" stroke="#4598ba" transform="translate(0 254.983692265) translate(222.58217365000002 87.617999) scale(0.67) translate(-86.867 90.288)"></path>
        <path id="path107860" style="font-style:normal;font-weight:normal;font-size:72px;line-height:1;font-family:'Brandmark Script 4';font-variant-ligatures:normal;text-align:center;text-anchor:middle" d="m 300.51913,-20.52 c -1.08001,-1.224 -2.952,-1.296 -4.10401,-0.216 -4.536,4.032 -18.36,14.544 -28.008,14.544 -2.73599,0 -4.752,-0.72 -6.12,-2.232 -2.66399,-3.024 -2.088,-8.208 -2.088,-8.28 0.144,-1.224 -0.57599,-2.448 -1.72799,-3.024 -0.36,-0.144 -0.72001,-0.216 -1.15201,-0.216 0.504,-1.08 0.288,-2.304 -0.50399,-3.168 -3.45601,-3.6 -8.64001,-4.824 -14.61601,-3.456 -4.68,1.152 -9.72,3.816 -13.896,7.344 -6.98399,6.048 -9.288,12.456 -5.976,16.704 1.22401,1.512 3.456,3.312 7.704,3.384 0.072,0.072 0.216,0.072 0.288,0.072 7.056,0 17.064,-4.824 24.624,-11.448 0.504,2.016 1.368,4.104 2.952,5.904 2.52,2.808 6.048,4.248 10.512,4.248 13.82401,0 31.176,-15.408 31.89601,-16.056 1.15199,-1.08 1.296,-2.88 0.216,-4.104 z m -70.20001,15.624 c -0.072,0 -0.144,0 -0.216,-0.072 -1.512,0 -2.592,-0.36 -3.168,-1.152 -0.936,-1.224 0.792,-4.896 5.184,-8.64 3.888,-3.384 9.864,-6.552 14.832,-6.552 2.16001,0 4.104,0.648 5.616,2.16 0.504,0.576 1.152,0.864 1.872,0.936 -6.408,7.128 -17.568,13.32 -24.12,13.32 z" stroke-width="0" stroke-linejoin="miter" stroke-miterlimit="2" fill="#519fbf" stroke="#519fbf" transform="translate(0 254.983692265) translate(312.34225455000006 129.94488988) scale(0.67) translate(-220.83727 27.113536)"></path>
        <path id="path107862" style="font-style:normal;font-weight:normal;font-size:72px;line-height:1;font-family:'Brandmark Script 4';font-variant-ligatures:normal;text-align:center;text-anchor:middle" d="m 384.63537,-19.152 c -0.36,-1.584 -1.872,-2.592 -3.456,-2.304 -20.44799,4.392 -30.88799,-1.08 -33.83999,-4.968 -0.50401,-0.648 -1.296,-1.08 -2.08801,-1.152 -0.86399,-0.072 -1.656,0.216 -2.23199,0.792 -5.83201,5.4 -28.44,18.216 -36.50401,18.216 -1.656,0 -2.16,-0.648 -2.51999,-1.296 -1.36801,-2.808 0.43199,-9.216 1.87199,-11.016 1.00801,-1.224 0.792,-3.024 -0.43199,-4.032 -1.22401,-1.008 -3.096,-0.864 -4.10401,0.432 -2.376,2.952 -5.184,11.736 -2.592,17.136 1.44,2.952 4.176,4.608 7.776,4.608 9.072,0 29.664,-11.232 38.304,-17.928 1.944,1.656 5.112,3.744 10.15201,5.112 7.56,2.16 16.776,2.088 27.43199,-0.144 1.584,-0.36 2.592,-1.872 2.232,-3.456 z" stroke-width="0" stroke-linejoin="miter" stroke-miterlimit="2" fill="#5da6c3" stroke="#5da6c3" transform="translate(0 254.983692265) translate(363.84297705000006 129.62775409) scale(0.67) translate(-297.70402 27.586873)"></path>
        <path id="path107864" style="font-style:normal;font-weight:normal;font-size:72px;line-height:1;font-family:'Brandmark Script 4';font-variant-ligatures:normal;text-align:center;text-anchor:middle" d="m 392.50475,-40.824 c 0.504,0.288 1.008,0.432 1.512,0.432 1.008,0 1.944,-0.504 2.52,-1.368 1.872,-3.168 6.552,-6.696 9.36,-8.856 l 0.792,-0.576 c 1.296,-1.008 1.512,-2.808 0.504,-4.104 -0.936,-1.296 -2.808,-1.512 -4.104,-0.504 l -0.72,0.504 c -3.096,2.448 -8.352,6.408 -10.872,10.512 -0.792,1.368 -0.36,3.168 1.008,3.96 z m 48.816,20.808 c -0.792,-1.44 -2.592,-1.872 -3.96,-1.08 -17.784,10.368 -45.576,19.08 -53.568,19.08 -1.224,0 -1.44,-0.504 -1.584,-0.792 -1.368,-2.736 1.152,-10.512 3.888,-13.968 1.008,-1.224 0.792,-3.024 -0.504,-4.032 -1.224,-1.008 -3.096,-0.864 -4.104,0.432 -3.096,3.888 -7.416,14.184 -4.608,20.088 1.296,2.664 3.744,4.104 6.912,4.104 9.72,0 38.88,-9.648 56.52,-19.872 1.368,-0.792 1.872,-2.592 1.008,-3.96 z" stroke-width="0" stroke-linejoin="miter" stroke-miterlimit="2" fill="#69acc8" stroke="#69acc8" transform="translate(0 254.983692265) translate(416.28299265000004 110.30083158) scale(0.67) translate(-375.9727 56.433026)"></path>
        <path id="path107866" style="font-style:normal;font-weight:normal;font-size:72px;line-height:1;font-family:'Brandmark Script 4';font-variant-ligatures:normal;text-align:center;text-anchor:middle" d="m 517.5665,-20.664 c -1.152,-1.08 -3.024,-1.08 -4.104,0.072 -0.144,0.144 -14.256,14.112 -34.776,14.112 -0.72,0 -1.872,-0.072 -2.16,-0.648 -0.432,-0.864 -2.664,-9.432 32.904,-52.344 4.608,-5.472 7.92,-9.288 8.352,-9.792 1.008,-1.296 0.864,-3.096 -0.36,-4.176 -1.224,-1.008 -3.096,-0.864 -4.104,0.36 -0.216,0.216 -0.504,0.576 -0.936,1.08 -2.592,3.024 -5.04,5.904 -7.344,8.712 -10.44,12.312 -28.008,32.976 -36.144,41.76 -0.072,-0.576 -0.288,-1.152 -0.72,-1.584 -3.456,-3.6 -8.64,-4.824 -14.616,-3.456 -4.68,1.08 -9.72,3.816 -13.896,7.344 -6.984,6.048 -9.288,12.456 -5.976,16.704 1.08,1.368 3.168,3.096 6.84,3.312 h 0.792 c 8.712,0 21.6,-7.848 29.376,-15.768 l 2.232,-2.304 c -3.672,8.28 -2.376,11.16 -1.728,12.6 0.864,1.872 2.88,4.032 7.416,4.032 23.112,0 38.376,-15.264 38.952,-15.912 1.152,-1.08 1.152,-2.952 0,-4.104 z m -76.68,15.624 c -1.8,-0.072 -2.376,-0.792 -2.592,-1.08 -0.936,-1.224 0.792,-4.896 5.184,-8.64 3.888,-3.384 9.864,-6.552 14.832,-6.552 2.16,0 4.104,0.648 5.616,2.16 0.504,0.576 1.152,0.864 1.8,0.936 -7.848,7.56 -19.008,13.536 -24.84,13.176 z" stroke-width="0" stroke-linejoin="miter" stroke-miterlimit="2" fill="#75b3cc" stroke="#75b3cc" transform="translate(0 254.983692265) translate(453.95303915000005 98.45882947999999) scale(0.67) translate(-432.19665 74.107656)"></path>
        <path id="path107868" style="font-style:normal;font-weight:normal;font-size:72px;line-height:1;font-family:'Brandmark Script 4';font-variant-ligatures:normal;text-align:center;text-anchor:middle" d="m 524.19922,-52.488281 v 19.511719 h -5.97656 v -19.511719 z" stroke-width="0" stroke-linejoin="miter" stroke-miterlimit="2" fill="#81bad1" stroke="#81bad1" transform="translate(0 254.983692265) translate(511.5904658500001 112.94381073) scale(0.67) translate(-518.22266 52.488281)"></path>
        <path id="path107870" style="font-style:normal;font-weight:normal;font-size:72px;line-height:1;font-family:'Brandmark Script 4';font-variant-ligatures:normal;text-align:center;text-anchor:middle" d="m 595.421,-19.152 c -0.288,-1.584 -1.8,-2.592 -3.384,-2.304 -0.144,0.072 -15.336,3.024 -31.176,7.416 -2.52,0.72 -4.896,1.368 -7.056,2.016 -1.944,-2.52 -4.968,-4.248 -7.416,-5.616 -1.872,-1.008 -4.392,-2.448 -4.608,-3.456 0,-0.144 0.504,-0.72 1.944,-1.224 2.952,-1.08 6.552,-0.936 7.416,-0.504 1.296,1.008 3.096,0.792 4.104,-0.432 1.008,-1.224 0.792,-3.096 -0.432,-4.104 -3.168,-2.592 -11.376,-1.8 -15.408,0.648 -2.736,1.656 -3.96,4.176 -3.312,6.912 0.792,3.528 4.176,5.4 7.416,7.272 1.656,0.864 3.024,1.728 4.104,2.52 -20.808,7.056 -23.544,11.952 -24.552,13.68 -1.08,1.944 -1.296,3.96 -0.576,5.904 1.584,4.248 4.824,6.552 9,6.552 0.648,0 1.296,-0.072 1.944,-0.144 9.216,-1.44 22.032,-13.536 22.464,-21.312 v -1.224 c 12.312,-3.744 26.496,-7.056 37.224,-9.144 1.584,-0.288 2.592,-1.872 2.304,-3.456 z m -62.856,29.304 c -2.448,0.432 -3.744,-0.36 -4.608,-2.592 0,-0.144 -0.144,-0.432 0.216,-1.008 1.944,-3.528 10.656,-7.488 21.672,-11.16 -1.44,4.752 -10.44,13.752 -17.28,14.76 z" stroke-width="0" stroke-linejoin="miter" stroke-miterlimit="2" fill="#8dc1d5" stroke="#8dc1d5" transform="translate(0 254.983692265) translate(514.1651217500001 128.70510312) scale(0.67) translate(-522.06543 28.963964)"></path>
        <path id="path107872" style="font-style:normal;font-weight:normal;font-size:72px;line-height:1;font-family:'Brandmark Script 4';font-variant-ligatures:normal;text-align:center;text-anchor:middle" d="m 777.77225,-73.656 c 0,-14.328 -22.608,-19.44 -43.848,-19.44 -32.904,0 -94.464,12.6 -94.464,42.84 0,18.792 25.704,28.8 26.784,29.232 1.512,0.576 3.168,-0.144 3.744,-1.656 0.576,-1.512 -0.144,-3.168 -1.656,-3.744 -0.216,-0.144 -23.04,-9.072 -23.04,-23.832 0,-24.624 56.808,-37.008 88.632,-37.008 18.36,0 38.016,4.248 38.016,13.608 0,5.976 -8.64,13.608 -23.112,20.448 -8.712,4.104 -19.368,7.848 -31.176,11.016 6.984,-9.648 14.472,-17.352 20.448,-23.112 1.152,-1.08 1.224,-2.952 0.072,-4.104 -1.08,-1.152 -2.952,-1.224 -4.104,-0.072 -7.272,6.984 -16.704,16.704 -24.984,29.448 -7.632,1.728 -15.624,3.312 -23.904,4.608 -1.512,0.216 -2.592,1.584 -2.448,3.096 0.144,1.512 1.368,2.736 2.88,2.736 3.744,0 10.152,0.36 16.56,1.44 -1.224,2.448 -2.376,4.896 -3.456,7.416 -0.648,1.512 0.072,3.24 1.584,3.816 0.36,0.216 0.72,0.288 1.08,0.288 1.152,0 2.232,-0.72 2.736,-1.8 1.224,-2.952 2.592,-5.76 3.96,-8.424 7.848,2.016 14.472,5.4 14.472,10.8 0,9.648 -10.8,18.36 -22.752,18.36 -11.88,0 -17.856,-8.712 -18.144,-9.144 -0.864,-1.296 -2.664,-1.656 -4.032,-0.792 -1.296,0.864 -1.656,2.664 -0.792,4.032 0.288,0.432 7.848,11.736 22.968,11.736 15.264,0 28.656,-11.304 28.656,-24.192 0,-8.64 -8.208,-13.464 -17.424,-16.128 l 1.656,-2.736 c 39.384,-9.432 65.088,-24.336 65.088,-38.736 z" stroke-width="0" stroke-linejoin="miter" stroke-miterlimit="2" fill="#99c8da" stroke="#99c8da" transform="translate(0 254.983692265) translate(592.8196511500001 85.736639) scale(0.67) translate(-639.46025 93.096)"></path>
        <path id="path107874" style="font-style:normal;font-weight:normal;font-size:72px;line-height:1;font-family:'Brandmark Script 4';font-variant-ligatures:normal;text-align:center;text-anchor:middle" d="m 815.363,-93.168 c 1.152,-1.152 1.08,-3.024 -0.072,-4.176 -1.152,-1.08 -3.024,-1.008 -4.104,0.144 -4.032,4.248 -20.376,23.76 -34.92,44.712 -28.368,40.896 -24.336,50.184 -23.04,53.28 1.08,2.52 3.672,5.544 10.008,5.544 10.008,0 21.024,-3.816 32.76,-11.448 8.568,-5.616 14.256,-11.16 14.472,-11.376 1.152,-1.152 1.152,-2.952 0,-4.104 -1.08,-1.152 -2.952,-1.152 -4.104,-0.072 -0.216,0.216 -21.744,21.168 -43.128,21.168 -3.816,0 -4.392,-1.44 -4.68,-2.016 -1.224,-2.808 -1.44,-13.176 22.464,-47.664 14.4,-20.664 30.384,-39.888 34.344,-43.992 z" stroke-width="0" stroke-linejoin="miter" stroke-miterlimit="2" fill="#a5cede" stroke="#a5cede" transform="translate(0 254.983692265) translate(668.3992289500002 82.37661646999999) scale(0.67) translate(-752.26559 98.110959)"></path>
        <path id="path107876" style="font-style:normal;font-weight:normal;font-size:72px;line-height:1;font-family:'Brandmark Script 4';font-variant-ligatures:normal;text-align:center;text-anchor:middle" d="m 858.96237,-20.016 c -0.79199,-1.44 -2.592,-1.872 -3.95999,-1.08 -7.56001,4.464 -16.70401,7.056 -26.64,7.56 0.79199,-2.16 1.29599,-4.248 1.29599,-6.264 0,-2.592 -0.864,-4.752 -2.376,-6.336 -1.65599,-1.656 -4.032,-2.52 -7.056,-2.52 -3.67199,0 -5.832,1.368 -7.05599,2.592 -1.29601,1.224 -2.08801,2.808 -2.37601,4.68 h -0.21599 c -7.77601,2.304 -11.01601,10.08 -10.15201,16.2 0.72001,4.968 3.96001,8.136 8.208,8.136 6.192,0 12.456,-4.68 16.56001,-10.512 12.168,-0.144 23.544,-3.096 32.76,-8.496 1.36799,-0.792 1.79999,-2.592 1.00799,-3.96 z m -36.93599,6.336 c -3.74401,-0.936 -5.544,-4.032 -5.544,-6.192 0,-0.576 0.144,-1.44 0.79199,-2.016 0.576,-0.648 1.65601,-0.936 2.952,-0.936 1.008,0 2.23201,0.144 2.88,0.792 0.576,0.576 0.72,1.512 0.72,2.232 0,1.728 -0.72,3.888 -1.79999,6.12 z m -13.39201,10.8 c -1.79999,0 -2.304,-2.16 -2.448,-3.168 -0.36,-2.808 0.79201,-7.776 5.4,-9.504 1.22401,2.88 3.672,5.472 7.05601,6.912 -2.88,3.24 -6.48001,5.76 -10.00801,5.76 z" stroke-width="0" stroke-linejoin="miter" stroke-miterlimit="2" fill="#b1d5e3" stroke="#b1d5e3" transform="translate(0 254.983692265) translate(700.5758851500002 128.911439) scale(0.67) translate(-800.29045 28.656)"></path>
        <path id="path107878" style="font-style:normal;font-weight:normal;font-size:72px;line-height:1;font-family:'Brandmark Script 4';font-variant-ligatures:normal;text-align:center;text-anchor:middle" d="m 950.77475,-18.864 c -0.144,-1.656 -1.584,-2.808 -3.168,-2.592 -18.864,2.16 -34.2,6.768 -46.44,12.528 0.432,-5.04 0,-9.144 -1.584,-11.376 -0.576,-0.72 -1.44,-1.152 -2.304,-1.152 -0.936,0 -1.8,0.36 -2.376,1.08 -0.864,1.152 -1.944,2.304 -3.096,3.384 -0.504,-1.368 -1.224,-2.664 -2.304,-3.744 -2.952,-3.024 -7.992,-4.608 -14.472,-4.608 -10.872,0 -26.352,10.368 -26.424,20.16 -0.144,2.232 0.648,4.392 2.232,6.048 1.368,1.512 4.032,3.312 8.712,3.312 6.048,0 25.2,-6.984 36,-16.776 0,1.872 -0.216,4.176 -0.648,6.84 -24.192,13.32 -33.984,30.888 -33.48,39.528 0.288,4.464 3.096,7.344 7.344,7.344 5.904,0 14.832,-3.6 23.4,-20.592 3.456,-6.768 6.336,-14.976 7.848,-22.32 11.448,-5.976 27.216,-11.448 48.24,-13.896 1.584,-0.144 2.736,-1.584 2.52,-3.168 z m -91.224,17.208 c -2.016,0 -3.6,-0.504 -4.464,-1.44 -0.432,-0.504 -0.72,-1.152 -0.648,-1.8 v -0.216 c 0,-5.904 12.096,-14.4 20.592,-14.4 6.552,0 9.216,1.8 10.296,2.808 0.72,0.792 1.08,1.584 1.008,2.52 0,0.432 0.072,0.864 0.216,1.224 -9.792,6.624 -23.184,11.304 -27,11.304 z m 27.432,19.584 c -5.544,11.016 -12.24,17.352 -18.216,17.352 -0.648,0 -1.368,0 -1.512,-1.872 -0.216,-4.392 4.248,-14.904 17.784,-25.632 2.304,-1.8 4.968,-3.672 8.064,-5.616 -1.44,4.968 -3.384,10.44 -6.12,15.768 z" stroke-width="0" stroke-linejoin="miter" stroke-miterlimit="2" fill="#bddce7" stroke="#bddce7" transform="translate(0 254.983692265) translate(732.9366305500001 131.13047899999998) scale(0.67) translate(-848.59007 25.344)"></path>
      </g>
      <image xlink:href="" id="icon" x="0" y="0" style="display: none;"></image>
    </g>
  </g>
</svg>