<svg xmlns:dc="http://purl.org/dc/elements/1.1/" xmlns:cc="http://creativecommons.org/ns#" xmlns:rdf="http://www.w3.org/1999/02/22-rdf-syntax-ns#" xmlns:svg="http://www.w3.org/2000/svg" xmlns="http://www.w3.org/2000/svg" xmlns:xlink="http://www.w3.org/1999/xlink" id="svg842707" viewBox="0 0 1024 768" height="768px" width="1024px" version="1.1">
  <metadata id="metadata842713">
    <rdf:rdf>
      <cc:work rdf:about="">
        <dc:format>image/svg+xml</dc:format>
        <dc:type rdf:resource="http://purl.org/dc/dcmitype/StillImage"></dc:type>
      </cc:work>
    </rdf:rdf>
  </metadata>
  <defs id="defs842711"></defs>
  <linearGradient spreadMethod="pad" y2="30%" x2="-10%" y1="120%" x1="30%" id="3d_gradient2-logo-7048c5ce-6c5a-4ab2-8df9-e75741b7e64a">
    <stop id="stop842688" stop-opacity="1" stop-color="#ffffff" offset="0%"></stop>
    <stop id="stop842690" stop-opacity="1" stop-color="#000000" offset="100%"></stop>
  </linearGradient>
  <linearGradient gradientTransform="rotate(-30)" spreadMethod="pad" y2="30%" x2="-10%" y1="120%" x1="30%" id="3d_gradient3-logo-7048c5ce-6c5a-4ab2-8df9-e75741b7e64a">
    <stop id="stop842693" stop-opacity="1" stop-color="#ffffff" offset="0%"></stop>
    <stop id="stop842695" stop-opacity="1" stop-color="#cccccc" offset="50%"></stop>
    <stop id="stop842697" stop-opacity="1" stop-color="#000000" offset="100%"></stop>
  </linearGradient>
  <g id="logo-group">
    <image xlink:href="" id="container" x="272" y="144" width="480" height="480" transform="translate(0 0)" style="display: none;"></image>
    <g id="logo-center" transform="translate(0 0)">
      <image xlink:href="" id="icon_container" x="0" y="0" style="display: none;"></image>
      <g id="slogan" style="font-style:normal;font-weight:400;font-size:32px;line-height:1;font-family:'Roboto Slab';font-variant-ligatures:none;text-align:center;text-anchor:middle" transform="translate(0 0)">
        <path id="path842715" style="font-style:normal;font-weight:400;font-size:32px;line-height:1;font-family:'Roboto Slab';font-variant-ligatures:none;text-align:center;text-anchor:middle" d="m 320.54687,0 v -1.96875 l 2.54688,-0.4375 v -17.921875 l -2.54688,-0.4375 V -22.75 h 2.54688 3.07812 2.54688 v 1.984375 l -2.54688,0.4375 V -2.40625 h 7.90625 l 0.23438,-2.609375 h 2.625 V 0 Z" stroke-width="0" stroke-linejoin="miter" stroke-miterlimit="2" fill="#032a84" stroke="#032a84" transform="translate(0 357.29516125000004) translate(359.873045 57.640625) scale(0.75) translate(-320.54687 22.75)"></path>
        <path id="path842717" style="font-style:normal;font-weight:400;font-size:32px;line-height:1;font-family:'Roboto Slab';font-variant-ligatures:none;text-align:center;text-anchor:middle" d="m 339.57812,-1.96875 2.54688,-0.4375 v -12.078125 l -2.54688,-0.4375 v -1.984375 h 5.625 v 14.5 l 2.54688,0.4375 V 0 h -8.17188 z m 5.625,-19.265625 H 342.125 V -24.375 h 3.07812 z" stroke-width="0" stroke-linejoin="miter" stroke-miterlimit="2" fill="#032a84" stroke="#032a84" transform="translate(0 357.29516125000004) translate(374.89648250000005 56.421875) scale(0.75) translate(-339.57812 24.375)"></path>
        <path id="path842719" style="font-style:normal;font-weight:400;font-size:32px;line-height:1;font-family:'Roboto Slab';font-variant-ligatures:none;text-align:center;text-anchor:middle" d="m 349.78125,-14.625 v -2.28125 h 2.64062 v -2.140625 q 0,-2.703125 1.40625,-4.171875 1.42188,-1.484375 3.95313,-1.484375 0.53125,0 1.0625,0.09375 0.54687,0.07813 1.20312,0.234375 l -0.375,2.34375 q -0.28125,-0.0625 -0.6875,-0.109375 -0.39062,-0.04687 -0.8125,-0.04687 -1.35937,0 -2.01562,0.8125 -0.65625,0.796875 -0.65625,2.328125 v 2.140625 h 3.53125 V -14.625 H 355.5 v 12.21875 l 2.54687,0.4375 V 0 H 349.875 v -1.96875 l 2.54687,-0.4375 V -14.625 Z" stroke-width="0" stroke-linejoin="miter" stroke-miterlimit="2" fill="#032a84" stroke="#032a84" transform="translate(0 357.29516125000004) translate(383.29883000000007 56.17578125) scale(0.75) translate(-349.78125 24.703125)"></path>
        <path id="path842721" style="font-style:normal;font-weight:400;font-size:32px;line-height:1;font-family:'Roboto Slab';font-variant-ligatures:none;text-align:center;text-anchor:middle" d="m 368.79687,0.328125 q -3.53125,0 -5.625,-2.34375 Q 361.09375,-4.375 361.09375,-8.125 v -0.6875 q 0,-3.609375 2.14062,-6 2.15625,-2.40625 5.09375,-2.40625 3.40625,0 5.15625,2.0625 1.76563,2.0625 1.76563,5.5 v 1.921875 h -10.96875 l -0.0469,0.078125 q 0.0469,2.4375 1.23438,4.015625 1.1875,1.5625 3.32812,1.5625 1.5625,0 2.73438,-0.4375 1.1875,-0.453125 2.04687,-1.234375 l 1.20313,2 q -0.90625,0.875 -2.40625,1.484375 -1.48438,0.59375 -3.57813,0.59375 z m -0.46875,-15.125 q -1.54687,0 -2.64062,1.3125 -1.09375,1.296875 -1.34375,3.265625 l 0.0312,0.07813 h 7.79687 v -0.40625 q 0,-1.8125 -0.96875,-3.03125 -0.96875,-1.21875 -2.875,-1.21875 z" stroke-width="0" stroke-linejoin="miter" stroke-miterlimit="2" fill="#032a84" stroke="#032a84" transform="translate(0 357.29516125000004) translate(392.53320500000007 61.7890625) scale(0.75) translate(-361.09375 17.21875)"></path>
        <path id="path842723" style="font-style:normal;font-weight:400;font-size:32px;line-height:1;font-family:'Roboto Slab';font-variant-ligatures:none;text-align:center;text-anchor:middle" d="m 386.20312,-1.96875 2.54688,-0.4375 v -12.078125 l -2.54688,-0.4375 v -1.984375 h 5.625 v 14.5 l 2.54688,0.4375 V 0 h -8.17188 z m 5.625,-19.265625 H 388.75 V -24.375 h 3.07812 z" stroke-width="0" stroke-linejoin="miter" stroke-miterlimit="2" fill="#032a84" stroke="#032a84" transform="translate(0 357.29516125000004) translate(412.11523250000005 56.421875) scale(0.75) translate(-386.20312 24.375)"></path>
        <path id="path842725" style="font-style:normal;font-weight:400;font-size:32px;line-height:1;font-family:'Roboto Slab';font-variant-ligatures:none;text-align:center;text-anchor:middle" d="m 409.64062,-11.59375 h -2.3125 l -0.5,-2.03125 q -0.5625,-0.53125 -1.42187,-0.84375 -0.84375,-0.328125 -1.92188,-0.328125 -1.64062,0 -2.4375,0.71875 -0.79687,0.71875 -0.79687,1.734375 0,1 0.70312,1.578125 0.70313,0.578125 2.85938,1.03125 3.20312,0.6875 4.76562,1.875 1.5625,1.171875 1.5625,3.15625 0,2.25 -1.82812,3.640625 -1.8125,1.390625 -4.75,1.390625 -1.92188,0 -3.45313,-0.4375 Q 398.57812,-0.5625 397.375,-1.40625 l -0.0156,-3.859375 h 2.3125 L 400.25,-3 q 0.53125,0.484375 1.4375,0.703125 0.92187,0.21875 1.875,0.21875 1.64062,0 2.5625,-0.65625 0.9375,-0.671875 0.9375,-1.75 0,-1.015625 -0.78125,-1.671875 -0.76563,-0.65625 -2.92188,-1.140625 -3.07812,-0.671875 -4.64062,-1.828125 -1.5625,-1.15625 -1.5625,-3.125 0,-2.0625 1.75,-3.515625 1.76562,-1.453125 4.57812,-1.453125 1.92188,0 3.45313,0.5 1.53125,0.5 2.54687,1.390625 z" stroke-width="0" stroke-linejoin="miter" stroke-miterlimit="2" fill="#032a84" stroke="#032a84" transform="translate(0 357.29516125000004) translate(421.08008000000007 61.7890625) scale(0.75) translate(-397.15625 17.21875)"></path>
        <path id="path842727" style="font-style:normal;font-weight:400;font-size:32px;line-height:1;font-family:'Roboto Slab';font-variant-ligatures:none;text-align:center;text-anchor:middle" d="M 420.95312,-14.921875 V -16.90625 H 426.25 l 0.29687,2.453125 q 0.71875,-1.296875 1.76563,-2.03125 1.0625,-0.734375 2.42187,-0.734375 0.35938,0 0.73438,0.0625 0.39062,0.04687 0.59375,0.109375 l -0.40625,2.859375 -1.75,-0.09375 q -1.21875,0 -2.04688,0.578125 -0.82812,0.5625 -1.28125,1.59375 v 9.703125 l 2.54688,0.4375 V 0 h -8.17188 V -1.96875 L 423.5,-2.40625 v -12.078125 z" stroke-width="0" stroke-linejoin="miter" stroke-miterlimit="2" fill="#032a84" stroke="#032a84" transform="translate(0 357.29516125000004) translate(439.67773250000005 61.7890625) scale(0.75) translate(-420.95312 17.21875)"></path>
        <path id="path842729" style="font-style:normal;font-weight:400;font-size:32px;line-height:1;font-family:'Roboto Slab';font-variant-ligatures:none;text-align:center;text-anchor:middle" d="m 441.60937,0.328125 q -3.53125,0 -5.625,-2.34375 Q 433.90625,-4.375 433.90625,-8.125 v -0.6875 q 0,-3.609375 2.14062,-6 2.15625,-2.40625 5.09375,-2.40625 3.40625,0 5.15625,2.0625 1.76563,2.0625 1.76563,5.5 v 1.921875 h -10.96875 l -0.0469,0.078125 q 0.0469,2.4375 1.23438,4.015625 1.1875,1.5625 3.32812,1.5625 1.5625,0 2.73438,-0.4375 1.1875,-0.453125 2.04687,-1.234375 l 1.20313,2 q -0.90625,0.875 -2.40625,1.484375 -1.48438,0.59375 -3.57813,0.59375 z m -0.46875,-15.125 q -1.54687,0 -2.64062,1.3125 -1.09375,1.296875 -1.34375,3.265625 l 0.0312,0.07813 h 7.79687 v -0.40625 q 0,-1.8125 -0.96875,-3.03125 -0.96875,-1.21875 -2.875,-1.21875 z" stroke-width="0" stroke-linejoin="miter" stroke-miterlimit="2" fill="#032a84" stroke="#032a84" transform="translate(0 357.29516125000004) translate(450.14258000000007 61.7890625) scale(0.75) translate(-433.90625 17.21875)"></path>
        <path id="path842731" style="font-style:normal;font-weight:400;font-size:32px;line-height:1;font-family:'Roboto Slab';font-variant-ligatures:none;text-align:center;text-anchor:middle" d="m 462.10937,0 q -0.14062,-0.6875 -0.21875,-1.234375 -0.0781,-0.546875 -0.10937,-1.09375 -0.89063,1.140625 -2.23438,1.90625 -1.32812,0.75 -2.84375,0.75 -2.64062,0 -4.01562,-1.28125 -1.375,-1.296875 -1.375,-3.640625 0,-2.40625 1.9375,-3.703125 1.95312,-1.3125 5.34375,-1.3125 h 3.17187 v -1.96875 q 0,-1.484375 -0.9375,-2.34375 -0.9375,-0.875 -2.60937,-0.875 -1.15625,0 -2.04688,0.296875 -0.875,0.296875 -1.42187,0.8125 l -0.32813,1.78125 h -2.375 v -3.28125 q 1.15625,-0.921875 2.79688,-1.46875 1.64062,-0.5625 3.5625,-0.5625 2.875,0 4.65625,1.46875 1.78125,1.46875 1.78125,4.203125 v 8.140625 q 0,0.328125 0,0.640625 0.0156,0.3125 0.0469,0.625 l 1.25,0.171875 V 0 Z m -4.95312,-2.25 q 1.53125,0 2.79687,-0.734375 1.26563,-0.734375 1.8125,-1.765625 v -2.78125 h -3.28125 q -1.89062,0 -3,0.875 -1.09375,0.875 -1.09375,2.125 0,1.109375 0.6875,1.703125 0.6875,0.578125 2.07813,0.578125 z" stroke-width="0" stroke-linejoin="miter" stroke-miterlimit="2" fill="#032a84" stroke="#032a84" transform="translate(0 357.29516125000004) translate(463.94726750000007 61.7890625) scale(0.75) translate(-451.3125 17.21875)"></path>
        <path id="path842733" style="font-style:normal;font-weight:400;font-size:32px;line-height:1;font-family:'Roboto Slab';font-variant-ligatures:none;text-align:center;text-anchor:middle" d="M 468.28125,-22.390625 V -24.375 h 5.625 v 21.96875 l 2.54687,0.4375 V 0 h -8.17187 v -1.96875 l 2.54687,-0.4375 v -19.546875 z" stroke-width="0" stroke-linejoin="miter" stroke-miterlimit="2" fill="#032a84" stroke="#032a84" transform="translate(0 357.29516125000004) translate(477.42383000000007 56.421875) scale(0.75) translate(-468.28125 24.375)"></path>
        <path id="path842735" style="font-style:normal;font-weight:400;font-size:32px;line-height:1;font-family:'Roboto Slab';font-variant-ligatures:none;text-align:center;text-anchor:middle" d="m 482.29687,-1.125 q 0,1.53125 -0.76562,3.203125 -0.76563,1.671875 -2.0625,2.78125 l -1.73438,-1.15625 q 0.73438,-1.125 1.10938,-2.296875 0.375,-1.171875 0.375,-2.484375 v -2.375 h 3.07812 z" stroke-width="0" stroke-linejoin="miter" stroke-miterlimit="2" fill="#032a84" stroke="#032a84" transform="translate(0 357.29516125000004) translate(485.26367000000005 72.11328125) scale(0.75) translate(-477.73437 3.453125)"></path>
        <path id="path842737" style="font-style:normal;font-weight:400;font-size:32px;line-height:1;font-family:'Roboto Slab';font-variant-ligatures:none;text-align:center;text-anchor:middle" d="M 492.59375,-22.390625 V -24.375 h 5.625 v 21.96875 l 2.54687,0.4375 V 0 h -8.17187 v -1.96875 l 2.54687,-0.4375 v -19.546875 z" stroke-width="0" stroke-linejoin="miter" stroke-miterlimit="2" fill="#032a84" stroke="#032a84" transform="translate(0 357.29516125000004) translate(497.15820500000007 56.421875) scale(0.75) translate(-492.59375 24.375)"></path>
        <path id="path842739" style="font-style:normal;font-weight:400;font-size:32px;line-height:1;font-family:'Roboto Slab';font-variant-ligatures:none;text-align:center;text-anchor:middle" d="m 503.07812,-1.96875 2.54688,-0.4375 v -12.078125 l -2.54688,-0.4375 v -1.984375 h 5.625 v 14.5 l 2.54688,0.4375 V 0 h -8.17188 z m 5.625,-19.265625 H 505.625 V -24.375 h 3.07812 z" stroke-width="0" stroke-linejoin="miter" stroke-miterlimit="2" fill="#032a84" stroke="#032a84" transform="translate(0 357.29516125000004) translate(505.77148250000005 56.421875) scale(0.75) translate(-503.07812 24.375)"></path>
        <path id="path842741" style="font-style:normal;font-weight:400;font-size:32px;line-height:1;font-family:'Roboto Slab';font-variant-ligatures:none;text-align:center;text-anchor:middle" d="m 513.28125,-14.625 v -2.28125 h 2.64062 v -2.140625 q 0,-2.703125 1.40625,-4.171875 1.42188,-1.484375 3.95313,-1.484375 0.53125,0 1.0625,0.09375 0.54687,0.07813 1.20312,0.234375 l -0.375,2.34375 q -0.28125,-0.0625 -0.6875,-0.109375 -0.39062,-0.04687 -0.8125,-0.04687 -1.35937,0 -2.01562,0.8125 Q 519,-20.578125 519,-19.046875 v 2.140625 h 3.53125 V -14.625 H 519 v 12.21875 l 2.54687,0.4375 V 0 H 513.375 v -1.96875 l 2.54687,-0.4375 V -14.625 Z" stroke-width="0" stroke-linejoin="miter" stroke-miterlimit="2" fill="#032a84" stroke="#032a84" transform="translate(0 357.29516125000004) translate(514.1738300000001 56.17578125) scale(0.75) translate(-513.28125 24.703125)"></path>
        <path id="path842743" style="font-style:normal;font-weight:400;font-size:32px;line-height:1;font-family:'Roboto Slab';font-variant-ligatures:none;text-align:center;text-anchor:middle" d="m 532.29687,0.328125 q -3.53125,0 -5.625,-2.34375 Q 524.59375,-4.375 524.59375,-8.125 v -0.6875 q 0,-3.609375 2.14062,-6 2.15625,-2.40625 5.09375,-2.40625 3.40625,0 5.15625,2.0625 1.76563,2.0625 1.76563,5.5 v 1.921875 h -10.96875 l -0.0469,0.078125 q 0.0469,2.4375 1.23438,4.015625 1.1875,1.5625 3.32812,1.5625 1.5625,0 2.73438,-0.4375 1.1875,-0.453125 2.04687,-1.234375 l 1.20313,2 q -0.90625,0.875 -2.40625,1.484375 -1.48438,0.59375 -3.57813,0.59375 z m -0.46875,-15.125 q -1.54687,0 -2.64062,1.3125 -1.09375,1.296875 -1.34375,3.265625 l 0.0312,0.07813 h 7.79687 v -0.40625 q 0,-1.8125 -0.96875,-3.03125 -0.96875,-1.21875 -2.875,-1.21875 z" stroke-width="0" stroke-linejoin="miter" stroke-miterlimit="2" fill="#032a84" stroke="#032a84" transform="translate(0 357.29516125000004) translate(523.4082050000001 61.7890625) scale(0.75) translate(-524.59375 17.21875)"></path>
        <path id="path842745" style="font-style:normal;font-weight:400;font-size:32px;line-height:1;font-family:'Roboto Slab';font-variant-ligatures:none;text-align:center;text-anchor:middle" d="m 549.70312,-1.96875 2.54688,-0.4375 v -12.078125 l -2.54688,-0.4375 v -1.984375 h 5.625 v 14.5 l 2.54688,0.4375 V 0 h -8.17188 z m 5.625,-19.265625 H 552.25 V -24.375 h 3.07812 z" stroke-width="0" stroke-linejoin="miter" stroke-miterlimit="2" fill="#032a84" stroke="#032a84" transform="translate(0 357.29516125000004) translate(542.9902325 56.421875) scale(0.75) translate(-549.70312 24.375)"></path>
        <path id="path842747" style="font-style:normal;font-weight:400;font-size:32px;line-height:1;font-family:'Roboto Slab';font-variant-ligatures:none;text-align:center;text-anchor:middle" d="m 573.14062,-11.59375 h -2.3125 l -0.5,-2.03125 q -0.5625,-0.53125 -1.42187,-0.84375 -0.84375,-0.328125 -1.92188,-0.328125 -1.64062,0 -2.4375,0.71875 -0.79687,0.71875 -0.79687,1.734375 0,1 0.70312,1.578125 0.70313,0.578125 2.85938,1.03125 3.20312,0.6875 4.76562,1.875 1.5625,1.171875 1.5625,3.15625 0,2.25 -1.82812,3.640625 -1.8125,1.390625 -4.75,1.390625 -1.92188,0 -3.45313,-0.4375 Q 562.07812,-0.5625 560.875,-1.40625 l -0.0156,-3.859375 h 2.3125 L 563.75,-3 q 0.53125,0.484375 1.4375,0.703125 0.92187,0.21875 1.875,0.21875 1.64062,0 2.5625,-0.65625 0.9375,-0.671875 0.9375,-1.75 0,-1.015625 -0.78125,-1.671875 -0.76563,-0.65625 -2.92188,-1.140625 -3.07812,-0.671875 -4.64062,-1.828125 -1.5625,-1.15625 -1.5625,-3.125 0,-2.0625 1.75,-3.515625 1.76562,-1.453125 4.57812,-1.453125 1.92188,0 3.45313,0.5 1.53125,0.5 2.54687,1.390625 z" stroke-width="0" stroke-linejoin="miter" stroke-miterlimit="2" fill="#032a84" stroke="#032a84" transform="translate(0 357.29516125000004) translate(551.9550800000001 61.7890625) scale(0.75) translate(-560.65625 17.21875)"></path>
        <path id="path842749" style="font-style:normal;font-weight:400;font-size:32px;line-height:1;font-family:'Roboto Slab';font-variant-ligatures:none;text-align:center;text-anchor:middle" d="m 592.17187,0.328125 q -3.53125,0 -5.625,-2.34375 Q 584.46875,-4.375 584.46875,-8.125 v -0.6875 q 0,-3.609375 2.14062,-6 2.15625,-2.40625 5.09375,-2.40625 3.40625,0 5.15625,2.0625 1.76563,2.0625 1.76563,5.5 v 1.921875 h -10.96875 l -0.0469,0.078125 q 0.0469,2.4375 1.23438,4.015625 1.1875,1.5625 3.32812,1.5625 1.5625,0 2.73438,-0.4375 1.1875,-0.453125 2.04687,-1.234375 l 1.20313,2 q -0.90625,0.875 -2.40625,1.484375 -1.48438,0.59375 -3.57813,0.59375 z m -0.46875,-15.125 q -1.54687,0 -2.64062,1.3125 -1.09375,1.296875 -1.34375,3.265625 l 0.0312,0.07813 h 7.79687 v -0.40625 q 0,-1.8125 -0.96875,-3.03125 -0.96875,-1.21875 -2.875,-1.21875 z" stroke-width="0" stroke-linejoin="miter" stroke-miterlimit="2" fill="#032a84" stroke="#032a84" transform="translate(0 357.29516125000004) translate(570.5644550000001 61.7890625) scale(0.75) translate(-584.46875 17.21875)"></path>
        <path id="path842751" style="font-style:normal;font-weight:400;font-size:32px;line-height:1;font-family:'Roboto Slab';font-variant-ligatures:none;text-align:center;text-anchor:middle" d="m 612.67187,0 q -0.14062,-0.6875 -0.21875,-1.234375 -0.0781,-0.546875 -0.10937,-1.09375 -0.89063,1.140625 -2.23438,1.90625 -1.32812,0.75 -2.84375,0.75 -2.64062,0 -4.01562,-1.28125 -1.375,-1.296875 -1.375,-3.640625 0,-2.40625 1.9375,-3.703125 1.95312,-1.3125 5.34375,-1.3125 h 3.17187 v -1.96875 q 0,-1.484375 -0.9375,-2.34375 -0.9375,-0.875 -2.60937,-0.875 -1.15625,0 -2.04688,0.296875 -0.875,0.296875 -1.42187,0.8125 l -0.32813,1.78125 h -2.375 v -3.28125 q 1.15625,-0.921875 2.79688,-1.46875 1.64062,-0.5625 3.5625,-0.5625 2.875,0 4.65625,1.46875 1.78125,1.46875 1.78125,4.203125 v 8.140625 q 0,0.328125 0,0.640625 0.0156,0.3125 0.0469,0.625 l 1.25,0.171875 V 0 Z m -4.95312,-2.25 q 1.53125,0 2.79687,-0.734375 1.26563,-0.734375 1.8125,-1.765625 v -2.78125 h -3.28125 q -1.89062,0 -3,0.875 -1.09375,0.875 -1.09375,2.125 0,1.109375 0.6875,1.703125 0.6875,0.578125 2.07813,0.578125 z" stroke-width="0" stroke-linejoin="miter" stroke-miterlimit="2" fill="#032a84" stroke="#032a84" transform="translate(0 357.29516125000004) translate(584.3691425000001 61.7890625) scale(0.75) translate(-601.875 17.21875)"></path>
        <path id="path842753" style="font-style:normal;font-weight:400;font-size:32px;line-height:1;font-family:'Roboto Slab';font-variant-ligatures:none;text-align:center;text-anchor:middle" d="m 619.26562,-14.921875 v -1.984375 h 5.29688 l 0.29687,2.453125 q 0.71875,-1.296875 1.76563,-2.03125 1.0625,-0.734375 2.42187,-0.734375 0.35938,0 0.73438,0.0625 0.39062,0.04687 0.59375,0.109375 l -0.40625,2.859375 -1.75,-0.09375 q -1.21875,0 -2.04688,0.578125 -0.82812,0.5625 -1.28125,1.59375 v 9.703125 l 2.54688,0.4375 V 0 h -8.17188 v -1.96875 l 2.54688,-0.4375 v -12.078125 z" stroke-width="0" stroke-linejoin="miter" stroke-miterlimit="2" fill="#032a84" stroke="#032a84" transform="translate(0 357.29516125000004) translate(598.1621075 61.7890625) scale(0.75) translate(-619.26562 17.21875)"></path>
        <path id="path842755" style="font-style:normal;font-weight:400;font-size:32px;line-height:1;font-family:'Roboto Slab';font-variant-ligatures:none;text-align:center;text-anchor:middle" d="m 632.0625,-1.96875 2.54687,-0.4375 v -12.078125 l -2.54687,-0.4375 v -1.984375 h 5.29687 l 0.21875,2.515625 q 0.84375,-1.34375 2.10938,-2.078125 1.28125,-0.75 2.90625,-0.75 2.73437,0 4.23437,1.609375 1.5,1.59375 1.5,4.9375 v 8.265625 l 2.54688,0.4375 V 0 h -8.17188 v -1.96875 l 2.54688,-0.4375 v -8.203125 q 0,-2.234375 -0.89063,-3.171875 -0.875,-0.9375 -2.6875,-0.9375 -1.32812,0 -2.35937,0.640625 -1.01563,0.640625 -1.625,1.75 v 9.921875 l 2.54687,0.4375 V 0 h -8.17187 z" stroke-width="0" stroke-linejoin="miter" stroke-miterlimit="2" fill="#032a84" stroke="#032a84" transform="translate(0 357.29516125000004) translate(608.5097675000001 61.7890625) scale(0.75) translate(-632.0625 17.21875)"></path>
        <path id="path842757" style="font-style:normal;font-weight:400;font-size:32px;line-height:1;font-family:'Roboto Slab';font-variant-ligatures:none;text-align:center;text-anchor:middle" d="m 660.73437,0.328125 q -3.53125,0 -5.625,-2.34375 Q 653.03125,-4.375 653.03125,-8.125 v -0.6875 q 0,-3.609375 2.14062,-6 2.15625,-2.40625 5.09375,-2.40625 3.40625,0 5.15625,2.0625 1.76563,2.0625 1.76563,5.5 v 1.921875 h -10.96875 l -0.0469,0.078125 q 0.0469,2.4375 1.23438,4.015625 1.1875,1.5625 3.32812,1.5625 1.5625,0 2.73438,-0.4375 1.1875,-0.453125 2.04687,-1.234375 l 1.20313,2 q -0.90625,0.875 -2.40625,1.484375 -1.48438,0.59375 -3.57813,0.59375 z m -0.46875,-15.125 q -1.54687,0 -2.64062,1.3125 -1.09375,1.296875 -1.34375,3.265625 l 0.0312,0.07813 h 7.79687 v -0.40625 q 0,-1.8125 -0.96875,-3.03125 -0.96875,-1.21875 -2.875,-1.21875 z" stroke-width="0" stroke-linejoin="miter" stroke-miterlimit="2" fill="#032a84" stroke="#032a84" transform="translate(0 357.29516125000004) translate(624.9863300000001 61.7890625) scale(0.75) translate(-653.03125 17.21875)"></path>
        <path id="path842759" style="font-style:normal;font-weight:400;font-size:32px;line-height:1;font-family:'Roboto Slab';font-variant-ligatures:none;text-align:center;text-anchor:middle" d="m 683.14062,-11.59375 h -2.3125 l -0.5,-2.03125 q -0.5625,-0.53125 -1.42187,-0.84375 -0.84375,-0.328125 -1.92188,-0.328125 -1.64062,0 -2.4375,0.71875 -0.79687,0.71875 -0.79687,1.734375 0,1 0.70312,1.578125 0.70313,0.578125 2.85938,1.03125 3.20312,0.6875 4.76562,1.875 1.5625,1.171875 1.5625,3.15625 0,2.25 -1.82812,3.640625 -1.8125,1.390625 -4.75,1.390625 -1.92188,0 -3.45313,-0.4375 Q 672.07812,-0.5625 670.875,-1.40625 l -0.0156,-3.859375 h 2.3125 L 673.75,-3 q 0.53125,0.484375 1.4375,0.703125 0.92187,0.21875 1.875,0.21875 1.64062,0 2.5625,-0.65625 0.9375,-0.671875 0.9375,-1.75 0,-1.015625 -0.78125,-1.671875 -0.76563,-0.65625 -2.92188,-1.140625 -3.07812,-0.671875 -4.64062,-1.828125 -1.5625,-1.15625 -1.5625,-3.125 0,-2.0625 1.75,-3.515625 1.76562,-1.453125 4.57812,-1.453125 1.92188,0 3.45313,0.5 1.53125,0.5 2.54687,1.390625 z" stroke-width="0" stroke-linejoin="miter" stroke-miterlimit="2" fill="#032a84" stroke="#032a84" transform="translate(0 357.29516125000004) translate(638.9550800000001 61.7890625) scale(0.75) translate(-670.65625 17.21875)"></path>
        <path id="path842761" style="font-style:normal;font-weight:400;font-size:32px;line-height:1;font-family:'Roboto Slab';font-variant-ligatures:none;text-align:center;text-anchor:middle" d="m 691.89062,-20.984375 v 4.078125 h 3.20313 v 2.28125 h -3.20313 v 10.265625 q 0,1.1875 0.48438,1.671875 0.5,0.484375 1.3125,0.484375 0.40625,0 0.90625,-0.0625 0.51562,-0.078125 0.85937,-0.15625 L 695.875,-0.3125 q -0.4375,0.28125 -1.28125,0.453125 -0.84375,0.1875 -1.6875,0.1875 -1.875,0 -2.98438,-1.125 -1.10937,-1.140625 -1.10937,-3.5625 V -14.625 h -2.67188 v -2.28125 h 2.67188 v -4.078125 z" stroke-width="0" stroke-linejoin="miter" stroke-miterlimit="2" fill="#032a84" stroke="#032a84" transform="translate(0 357.29516125000004) translate(651.3183575 58.96484375) scale(0.75) translate(-686.14062 20.984375)"></path>
        <path id="path842763" style="font-style:normal;font-weight:400;font-size:32px;line-height:1;font-family:'Roboto Slab';font-variant-ligatures:none;text-align:center;text-anchor:middle" d="m 702.21875,0 h -3.07813 v -3.15625 h 3.07813 z" stroke-width="0" stroke-linejoin="miter" stroke-miterlimit="2" fill="#032a84" stroke="#032a84" transform="translate(0 357.29516125000004) translate(661.8183575 72.3359375) scale(0.75) translate(-699.14062 3.15625)"></path>
      </g>
      <g id="title" style="font-style:normal;font-weight:700;font-size:72px;line-height:1;font-family:'Brandmark1 Bold';font-variant-ligatures:normal;text-align:center;text-anchor:middle" transform="translate(0 0)">
        <path id="path842766" style="font-style:normal;font-weight:700;font-size:72px;line-height:1;font-family:'Brandmark1 Bold';font-variant-ligatures:normal;text-align:center;text-anchor:middle" d="m 329.63862,2.592 c 3.81601,0 7.488,-0.72 10.944,-2.16 3.38401,-1.368 6.48001,-3.384 9.072,-5.976 2.592,-2.592 4.68001,-5.616 6.048,-8.928 1.512,-3.528 2.304,-7.2 2.304,-11.088 0,-3.816 -0.792,-7.488 -2.304,-11.016 -1.36799,-3.312 -3.456,-6.336 -6.048,-8.928 -2.59199,-2.52 -5.68799,-4.536 -9.072,-5.904 -3.456,-1.44 -7.12799,-2.232 -10.944,-2.232 h -18.432 V 2.592 Z m -7.128,-11.304 v -33.624 h 7.128 c 4.536,0 8.856,1.8 12.096,4.896 3.168,3.168 4.968,7.416 4.968,11.88 0,4.536 -1.8,8.784 -4.968,11.952 -3.24,3.168 -7.56,4.896 -12.096,4.896 z" stroke-width="0" stroke-linejoin="miter" stroke-miterlimit="2" fill="#032a84" stroke="#032a84" transform="translate(0 272.83446250000003) translate(344.7322247999999 61.4948) scale(0.83) translate(-311.20662 53.64)"></path>
        <path id="path842768" style="font-style:normal;font-weight:700;font-size:72px;line-height:1;font-family:'Brandmark1 Bold';font-variant-ligatures:normal;text-align:center;text-anchor:middle" d="m 390.01512,-38.016 0.072,2.304 c -2.88,-1.44 -6.048,-2.232 -9.28801,-2.232 -2.73599,0 -5.47199,0.504 -7.992,1.584 -2.448,1.08 -4.608,2.52 -6.55199,4.392 -1.87201,1.872 -3.31201,4.104 -4.392,6.552 -1.00801,2.52 -1.584,5.256 -1.584,7.992 0,2.736 0.57599,5.472 1.584,7.992 1.07999,2.448 2.51999,4.608 4.392,6.552 1.94399,1.872 4.10399,3.312 6.55199,4.392 2.52001,1.008 5.25601,1.584 7.992,1.584 3.24001,0 6.40801,-0.792 9.28801,-2.232 l -0.072,1.656 h 10.80001 v -40.536 z m -4.31999,28.944 c -1.44,0.864 -3.16801,1.368 -4.89601,1.368 -5.32799,0 -9.72,-4.392 -9.72,-9.72 0,-5.328 4.39201,-9.72 9.72,-9.72 1.87201,0 3.74401,0.504 5.256,1.584 1.584,0.936 2.80801,2.376 3.528,4.032 0.64801,1.296 0.936,2.664 0.936,4.104 0,1.728 -0.43199,3.384 -1.296,4.896 -0.864,1.44 -2.01599,2.664 -3.52799,3.456 z" stroke-width="0" stroke-linejoin="miter" stroke-miterlimit="2" fill="#152c84" stroke="#152c84" transform="translate(0 272.83446250000003) translate(385.4623997999999 74.46272) scale(0.83) translate(-360.27912 38.016)"></path>
        <path id="path842770" style="font-style:normal;font-weight:700;font-size:72px;line-height:1;font-family:'Brandmark1 Bold';font-variant-ligatures:normal;text-align:center;text-anchor:middle" d="m 417.34025,2.52 h 9 l 16.344,-40.104 h -11.736 l -9.072,23.328 -9,-23.328 h -11.808 z" stroke-width="0" stroke-linejoin="miter" stroke-miterlimit="2" fill="#282e84" stroke="#282e84" transform="translate(0 272.83446250000003) translate(419.3173776999999 74.82128) scale(0.83) translate(-401.06825 37.584)"></path>
        <path id="path842772" style="font-style:normal;font-weight:700;font-size:72px;line-height:1;font-family:'Brandmark1 Bold';font-variant-ligatures:normal;text-align:center;text-anchor:middle" d="m 443.9465,2.52 h 10.872 v -41.544 l -10.872,3.6 z" stroke-width="0" stroke-linejoin="miter" stroke-miterlimit="2" fill="#3a3084" stroke="#3a3084" transform="translate(0 272.83446250000003) translate(454.9063251999999 73.62608) scale(0.83) translate(-443.9465 39.024)"></path>
        <path id="path842774" style="font-style:normal;font-weight:700;font-size:72px;line-height:1;font-family:'Brandmark1 Bold';font-variant-ligatures:normal;text-align:center;text-anchor:middle" d="m 460.37263,-9.504 c 1.07999,2.448 2.51999,4.68 4.392,6.552 1.94399,1.872 4.10399,3.384 6.55199,4.392 2.52001,1.08 5.25601,1.584 7.992,1.584 2.736,0 5.472,-0.504 7.99201,-1.584 2.44799,-1.008 4.608,-2.52 6.55199,-4.392 1.872,-1.872 3.312,-4.104 4.392,-6.552 1.08001,-2.52 1.584,-5.184 1.584,-7.992 v -34.92 l -10.8,-3.6 v 20.448 c -0.576,-0.288 -1.152,-0.576 -1.72799,-0.792 -2.52001,-1.08 -5.18401,-1.584 -7.99201,-1.584 -2.73599,0 -5.47199,0.504 -7.992,1.584 -2.448,1.008 -4.608,2.52 -6.55199,4.392 -1.87201,1.872 -3.31201,4.104 -4.392,6.552 -1.00801,2.52 -1.584,5.184 -1.584,7.92 0,2.808 0.57599,5.472 1.584,7.992 z m 18.93599,-17.712 c 5.328,0 9.72,4.392 9.72,9.72 0,5.4 -4.392,9.72 -9.72,9.72 -5.328,0 -9.72,-4.32 -9.72,-9.72 0,-5.328 4.392,-9.72 9.72,-9.72 z" stroke-width="0" stroke-linejoin="miter" stroke-miterlimit="2" fill="#4c3284" stroke="#4c3284" transform="translate(0 272.83446250000003) translate(467.2252930999999 59.52272) scale(0.83) translate(-458.78863 56.016)"></path>
        <path id="path842776" style="font-style:normal;font-weight:700;font-size:72px;line-height:1;font-family:'Brandmark1 Bold';font-variant-ligatures:normal;text-align:center;text-anchor:middle" d="m 507.40888,-51.12 -2.37601,17.352 h 4.752 l 3.888,-17.352 z" stroke-width="0" stroke-linejoin="miter" stroke-miterlimit="2" fill="#5f3484" stroke="#5f3484" transform="translate(0 272.83446250000003) translate(505.60801229999987 63.586400000000005) scale(0.83) translate(-505.03287 51.12)"></path>
        <path id="path842778" style="font-style:normal;font-weight:700;font-size:72px;line-height:1;font-family:'Brandmark1 Bold';font-variant-ligatures:normal;text-align:center;text-anchor:middle" d="m 534.28737,2.952 c 7.27201,0 13.17601,-5.904 13.17601,-13.176 0,-7.272 -5.904,-13.176 -13.17601,-13.176 h -3.024 c -1.08,0 -1.87199,-0.864 -1.87199,-1.872 0,-1.08 0.79199,-1.944 1.87199,-1.944 h 15.048 V -38.52 h -15.048 c -7.272,0 -13.176,5.976 -13.176,13.248 0,7.272 5.904,13.176 13.176,13.176 h 3.024 c 1.00801,0 1.872,0.864 1.872,1.872 0,1.08 -0.86399,1.872 -1.872,1.872 H 517.43938 V 2.952 Z" stroke-width="0" stroke-linejoin="miter" stroke-miterlimit="2" fill="#713583" stroke="#713583" transform="translate(0 272.83446250000003) translate(515.9054156 74.0444) scale(0.83) translate(-517.43938 38.52)"></path>
        <path id="path842780" style="font-style:normal;font-weight:700;font-size:72px;line-height:1;font-family:'Brandmark1 Bold';font-variant-ligatures:normal;text-align:center;text-anchor:middle" d="m 571.22225,2.52 h 21.168 c 6.192,0 11.088,-1.512 14.472,-4.464 3.312,-2.88 5.112,-6.984 5.112,-11.952 0,-4.104 -1.296,-7.704 -3.744,-10.44 -1.08,-1.224 -2.304,-2.232 -3.744,-3.024 0.936,-0.864 1.8,-1.8 2.52,-2.952 1.584,-2.376 2.448,-5.256 2.448,-8.352 0,-2.448 -0.504,-4.752 -1.44,-6.696 -0.936,-1.944 -2.376,-3.528 -4.176,-4.824 -3.24,-2.304 -7.776,-3.456 -13.392,-3.456 h -19.224 z m 20.592,-10.728 h -9.288 v -12.888 h 8.352 c 3.24,0 5.832,0.72 7.416,1.944 1.368,1.08 2.088,2.664 2.088,4.752 0,2.088 -0.72,3.6 -2.016,4.608 -1.512,1.08 -3.744,1.584 -6.552,1.584 z m -1.296,-23.4 h -7.992 v -11.304 l 7.272,-0.072 c 2.952,0 5.256,0.576 6.552,1.656 0.432,0.36 1.656,1.296 1.656,3.888 0,2.088 -0.648,3.528 -2.016,4.464 -1.296,0.936 -3.168,1.368 -5.472,1.368 z" stroke-width="0" stroke-linejoin="miter" stroke-miterlimit="2" fill="#833783" stroke="#833783" transform="translate(0 272.83446250000003) translate(560.5451977 61.4948) scale(0.83) translate(-571.22225 53.64)"></path>
        <path id="path842782" style="font-style:normal;font-weight:700;font-size:72px;line-height:1;font-family:'Brandmark1 Bold';font-variant-ligatures:normal;text-align:center;text-anchor:middle" d="m 616.49338,2.52 h 10.87199 v -58.032 l -10.87199,3.6 z" stroke-width="0" stroke-linejoin="miter" stroke-miterlimit="2" fill="#953983" stroke="#953983" transform="translate(0 272.83446250000003) translate(598.1202356 59.94104) scale(0.83) translate(-616.49338 55.512)"></path>
        <path id="path842784" style="font-style:normal;font-weight:700;font-size:72px;line-height:1;font-family:'Brandmark1 Bold';font-variant-ligatures:normal;text-align:center;text-anchor:middle" d="m 651.9995,3.024 c 2.736,0 5.472,-0.576 7.992,-1.584 2.448,-1.08 4.68,-2.52 6.552,-4.392 1.872,-1.944 3.312,-4.104 4.392,-6.552 1.08,-2.52 1.584,-5.256 1.584,-7.992 0,-2.808 -0.504,-5.472 -1.584,-7.992 -1.08,-2.448 -2.52,-4.68 -4.392,-6.552 -1.944,-1.872 -4.104,-3.312 -6.552,-4.392 -2.52,-1.08 -5.256,-1.584 -7.992,-1.584 -2.736,0 -5.472,0.504 -7.992,1.584 -2.448,1.08 -4.608,2.52 -6.552,4.392 -1.872,1.944 -3.312,4.104 -4.392,6.552 -1.008,2.52 -1.584,5.184 -1.584,7.992 0,2.736 0.576,5.472 1.584,7.992 1.08,2.448 2.52,4.608 4.392,6.552 1.944,1.872 4.104,3.312 6.552,4.392 2.52,1.008 5.256,1.584 7.992,1.584 z m 0,-30.24 c 5.328,0 9.72,4.392 9.72,9.72 0,5.328 -4.392,9.72 -9.72,9.72 -5.328,0 -9.72,-4.392 -9.72,-9.72 0,-5.328 4.392,-9.72 9.72,-9.72 z" stroke-width="0" stroke-linejoin="miter" stroke-miterlimit="2" fill="#a83b83" stroke="#a83b83" transform="translate(0 272.83446250000003) translate(610.5587152 74.46272) scale(0.83) translate(-631.4795 38.016)"></path>
        <path id="path842786" style="font-style:normal;font-weight:700;font-size:72px;line-height:1;font-family:'Brandmark1 Bold';font-variant-ligatures:normal;text-align:center;text-anchor:middle" d="m 708.3575,-32.112 c -3.816,-3.816 -8.928,-5.904 -14.256,-5.904 -5.4,0 -10.512,2.088 -14.328,5.904 -3.816,3.816 -5.904,8.856 -5.904,14.256 0,5.4 2.088,10.44 5.904,14.256 3.816,3.816 8.928,5.904 14.328,5.904 3.168,0 6.264,-0.72 9,-2.088 -1.08,3.96 -4.752,6.84 -9,6.84 -2.448,0 -4.752,-0.936 -6.48,-2.592 l -7.488,7.848 c 3.816,3.6 8.712,5.544 13.896,5.544 5.4,0 10.512,-2.088 14.328,-5.904 3.816,-3.816 5.904,-8.856 5.904,-14.256 v -15.552 c 0,-5.4 -2.088,-10.44 -5.904,-14.256 z m -14.256,23.616 c -5.184,0 -9.432,-4.176 -9.432,-9.36 0,-5.184 4.248,-9.432 9.432,-9.432 5.184,0 9.36,4.248 9.36,9.432 0,5.184 -4.248,9.36 -9.36,9.36 z" stroke-width="0" stroke-linejoin="miter" stroke-miterlimit="2" fill="#ba3d83" stroke="#ba3d83" transform="translate(0 272.83446250000003) translate(645.7424152000001 74.46272) scale(0.83) translate(-673.8695 38.016)"></path>
      </g>
      <image xlink:href="" id="icon" x="0" y="0" style="display: none;"></image>
    </g>
  </g>
</svg>