<svg xmlns:dc="http://purl.org/dc/elements/1.1/" xmlns:cc="http://creativecommons.org/ns#" xmlns:rdf="http://www.w3.org/1999/02/22-rdf-syntax-ns#" xmlns:svg="http://www.w3.org/2000/svg" xmlns="http://www.w3.org/2000/svg" xmlns:xlink="http://www.w3.org/1999/xlink" id="svg6181" viewBox="0 0 1024 768" height="768px" width="1024px" version="1.1">
  <metadata id="metadata6187">
    <rdf:rdf>
      <cc:work rdf:about="">
        <dc:format>image/svg+xml</dc:format>
        <dc:type rdf:resource="http://purl.org/dc/dcmitype/StillImage"></dc:type>
      </cc:work>
    </rdf:rdf>
  </metadata>
  <defs id="defs6185"></defs>
  <linearGradient spreadMethod="pad" y2="30%" x2="-10%" y1="120%" x1="30%" id="3d_gradient2-logo-7a0065b5-0e44-4c51-8e82-4fbca859953b">
    <stop id="stop6162" stop-opacity="1" stop-color="#ffffff" offset="0%"></stop>
    <stop id="stop6164" stop-opacity="1" stop-color="#000000" offset="100%"></stop>
  </linearGradient>
  <linearGradient gradientTransform="rotate(-30)" spreadMethod="pad" y2="30%" x2="-10%" y1="120%" x1="30%" id="3d_gradient3-logo-7a0065b5-0e44-4c51-8e82-4fbca859953b">
    <stop id="stop6167" stop-opacity="1" stop-color="#ffffff" offset="0%"></stop>
    <stop id="stop6169" stop-opacity="1" stop-color="#cccccc" offset="50%"></stop>
    <stop id="stop6171" stop-opacity="1" stop-color="#000000" offset="100%"></stop>
  </linearGradient>
  <g id="logo-group">
    <image xlink:href="" id="container" x="272" y="144" width="480" height="480" transform="translate(0 0)" style="display: none;"></image>
    <g id="logo-center" transform="translate(5.684341886080802e-14 0)">
      <image xlink:href="" id="icon_container" x="0" y="0" style="display: none;"></image>
      <g id="slogan" style="font-style:normal;font-weight:700;font-size:32px;line-height:1;font-family:'Comfortaa Bold Alt2';font-variant-ligatures:none;text-align:center;text-anchor:middle" transform="translate(0 0)"></g>
      <g id="title" style="font-style:normal;font-weight:normal;font-size:72px;line-height:1;font-family:'Brandmark Sans 22';font-variant-ligatures:normal;text-align:center;text-anchor:middle" transform="translate(0 0)">
        <path id="path6190" style="font-style:normal;font-weight:normal;font-size:72px;line-height:1;font-family:'Brandmark Sans 22';font-variant-ligatures:normal;text-align:center;text-anchor:middle" d="m 232.54662,-15.48 v -19.44 c 0,-15.48 -7.848,-15.48 -25.704,-15.48 h -26.856 v 12.24 h 26.928 c 9.36001,0 10.368,0.216 10.368,9.216 v 7.776 c 0,9 -1.00799,8.928 -10.368,8.928 h -26.928 V 0 h 26.856 c 17.856,0 25.704,0 25.704,-15.48 z" stroke-width="0" stroke-linejoin="miter" stroke-miterlimit="2" fill="#291380" stroke="#291380" transform="translate(0 301.194824375) translate(237.2356699999999 64.688281) scale(0.75) translate(-179.98662 50.4)"></path>
        <path id="path6192" style="font-style:normal;font-weight:normal;font-size:72px;line-height:1;font-family:'Brandmark Sans 22';font-variant-ligatures:normal;text-align:center;text-anchor:middle" d="m 310.19862,0 -27.432,-50.4 h -19.44 L 235.89462,0 h 16.992 l 20.16,-37.008 L 293.13463,0 Z" stroke-width="0" stroke-linejoin="miter" stroke-miterlimit="2" fill="#3d1283" stroke="#3d1283" transform="translate(0 301.194824375) translate(284.41666999999995 64.688281) scale(0.75) translate(-235.89462 50.4)"></path>
        <path id="path6194" style="font-style:normal;font-weight:normal;font-size:72px;line-height:1;font-family:'Brandmark Sans 22';font-variant-ligatures:normal;text-align:center;text-anchor:middle" d="m 371.01387,-50.4 h -17.06399 l -20.08801,37.008 -20.16,-37.008 h -16.992 L 324.14188,0 h 19.44 z" stroke-width="0" stroke-linejoin="miter" stroke-miterlimit="2" fill="#511186" stroke="#511186" transform="translate(0 301.194824375) translate(335.2781075 64.688281) scale(0.75) translate(-296.70987 50.4)"></path>
        <path id="path6196" style="font-style:normal;font-weight:normal;font-size:72px;line-height:1;font-family:'Brandmark Sans 22';font-variant-ligatures:normal;text-align:center;text-anchor:middle" d="m 376.27438,0 h 15.33599 v -50.4 h -15.33599 z" stroke-width="0" stroke-linejoin="miter" stroke-miterlimit="2" fill="#651089" stroke="#651089" transform="translate(0 301.194824375) translate(400.20149 64.688281) scale(0.75) translate(-376.27438 50.4)"></path>
        <path id="path6198" style="font-style:normal;font-weight:normal;font-size:72px;line-height:1;font-family:'Brandmark Sans 22';font-variant-ligatures:normal;text-align:center;text-anchor:middle" d="m 452.3435,-15.48 v -19.44 c 0,-15.48 -7.848,-15.48 -25.704,-15.48 h -26.856 v 12.24 h 26.928 c 9.36,0 10.368,0.216 10.368,9.216 v 7.776 c 0,9 -1.008,8.928 -10.368,8.928 h -26.928 V 0 h 26.856 c 17.856,0 25.704,0 25.704,-15.48 z" stroke-width="0" stroke-linejoin="miter" stroke-miterlimit="2" fill="#790f8c" stroke="#790f8c" transform="translate(0 301.194824375) translate(423.08332999999993 64.688281) scale(0.75) translate(-399.7835 50.4)"></path>
        <path id="path6200" style="font-style:normal;font-weight:normal;font-size:72px;line-height:1;font-family:'Brandmark Sans 22';font-variant-ligatures:normal;text-align:center;text-anchor:middle" d="m 469.63672,-52.488281 v 19.511719 h -5.97656 v -19.511719 z" stroke-width="0" stroke-linejoin="miter" stroke-miterlimit="2" fill="#8d0f90" stroke="#8d0f90" transform="translate(0 301.194824375) translate(476.240825 63.12207025) scale(0.75) translate(-463.66016 52.488281)"></path>
        <path id="path6202" style="font-style:normal;font-weight:normal;font-size:72px;line-height:1;font-family:'Brandmark Sans 22';font-variant-ligatures:normal;text-align:center;text-anchor:middle" d="m 529.9145,-31.32 h -32.112 c -1.944,0 -2.088,-1.512 -2.088,-3.456 0,-1.872 0.144,-3.384 2.088,-3.384 h 39.096 V -50.4 h -47.52 c -8.64,0 -9,6.984 -9,15.624 0,8.712 0.36,15.696 9,15.696 h 32.112 c 1.944,0 2.088,1.512 2.088,3.456 0,1.872 -0.144,3.384 -2.088,3.384 h -39.096 V 0 h 47.52 c 8.64,0 9,-6.984 9,-15.624 0,-8.712 -0.36,-15.696 -9,-15.696 z" stroke-width="0" stroke-linejoin="miter" stroke-miterlimit="2" fill="#a10e93" stroke="#a10e93" transform="translate(0 301.194824375) translate(494.0295799999999 64.688281) scale(0.75) translate(-480.3785 50.4)"></path>
        <path id="path6204" style="font-style:normal;font-weight:normal;font-size:72px;line-height:1;font-family:'Brandmark Sans 22';font-variant-ligatures:normal;text-align:center;text-anchor:middle" d="m 640.01375,-34.776 c 0,-8.64 -0.36,-15.624 -9,-15.624 h -47.88 V 0 h 47.88 c 8.64,0 9,-6.984 9,-15.624 0,-3.6 -1.152,-6.912 -3.24,-9.576 2.088,-2.664 3.24,-5.976 3.24,-9.576 z m -25.488,3.456 v 12.24 h 8.136 c 1.872,0 2.088,1.512 2.088,3.456 0,1.872 -0.216,3.384 -2.088,3.384 h -24.192 v -25.92 h 24.192 c 1.872,0 2.088,1.512 2.088,3.384 0,1.944 -0.216,3.456 -2.088,3.456 z" stroke-width="0" stroke-linejoin="miter" stroke-miterlimit="2" fill="#b50d96" stroke="#b50d96" transform="translate(0 301.194824375) translate(576.3460174999999 64.688281) scale(0.75) translate(-583.13375 50.4)"></path>
        <path id="path6206" style="font-style:normal;font-weight:normal;font-size:72px;line-height:1;font-family:'Brandmark Sans 22';font-variant-ligatures:normal;text-align:center;text-anchor:middle" d="m 701.56475,-12.168 h -20.304 c -9.36,0 -16.92,-0.288 -16.92,-9.288 V -50.4 h -15.336 v 34.92 c 0,15.48 14.472,15.48 32.328,15.48 h 20.232 z" stroke-width="0" stroke-linejoin="miter" stroke-miterlimit="2" fill="#c90c99" stroke="#c90c99" transform="translate(0 301.194824375) translate(630.9992674999999 64.688281) scale(0.75) translate(-649.00475 50.4)"></path>
        <path id="path6208" style="font-style:normal;font-weight:normal;font-size:72px;line-height:1;font-family:'Brandmark Sans 22';font-variant-ligatures:normal;text-align:center;text-anchor:middle" d="m 741.05675,-50.4 c -18.936,0 -34.272,0 -34.272,18.36 v 13.68 c 0,18.36 15.336,18.36 34.272,18.36 18.936,0 34.272,0 34.272,-18.36 v -13.68 c 0,-18.36 -15.336,-18.36 -34.272,-18.36 z m 18.936,20.016 v 10.368 c -1.008,8.424 -9.144,7.776 -18.936,7.776 -10.512,0 -18.936,0.792 -18.936,-9.792 v -6.336 c 0,-10.584 8.424,-9.792 18.936,-9.792 9.792,0 17.928,-0.648 18.936,7.776 z" stroke-width="0" stroke-linejoin="miter" stroke-miterlimit="2" fill="#dd0b9c" stroke="#dd0b9c" transform="translate(0 301.194824375) translate(679.5842674999999 64.688281) scale(0.75) translate(-706.78475 50.4)"></path>
        <path id="path6210" style="font-style:normal;font-weight:normal;font-size:72px;line-height:1;font-family:'Brandmark Sans 22';font-variant-ligatures:normal;text-align:center;text-anchor:middle" d="m 809.1395,-38.232 h 33.552 V -50.4 h -33.48 c -17.856,0 -25.704,0 -25.704,15.48 v 19.44 c 0,15.48 7.848,15.48 25.704,15.48 h 33.48 v -24.48 h -15.264 v 12.24 h -18.288 c -9.36,0 -10.296,0.072 -10.296,-8.928 v -8.064 c 0,-9 0.936,-9 10.296,-9 z" stroke-width="0" stroke-linejoin="miter" stroke-miterlimit="2" fill="#f10a9f" stroke="#f10a9f" transform="translate(0 301.194824375) translate(742.3763299999999 64.688281) scale(0.75) translate(-783.5075 50.4)"></path>
      </g>
      <image xlink:href="" id="icon" x="0" y="0" style="display: none;"></image>
    </g>
  </g>
</svg>